{"title":"Naruto Shippuden Episode 278 - With English Subtitle MP4 [Jazz_S","uid":7605592,"size":34546658,"categoryP":"video","categoryS":"tv_shows","magnet":"?xt=urn:btih:87afbd6ef0bd3eb11dd2a846ecb53e7934f8f827&amp;dn=Naruto+Shippuden+Episode+278+-+With+English+Subtitle+MP4+%5BJazz_S&amp;tr=udp%3A%2F%2Ftracker.openbittorrent.com%3A80&amp;tr=udp%3A%2F%2Fopen.demonii.com%3A1337&amp;tr=udp%3A%2F%2Ftracker.coppersurfer.tk%3A6969&amp;tr=udp%3A%2F%2Fexodus.desync.com%3A6969","seeders":0,"leechers":0,"uploader":"jazzsingh","files":8,"time":1346940968,"description":"Naruto Shippuden Episode 278\n\nTitle: The Targeted Medical Ninja\n\nRelease date : September 6th, 2012\n\nAudio language : Japanese\n\nSubTitle language : English\n\nGeneral\n\nFormat : MPEG-4\nFormat profile : Base Media\nCodec ID : isom\nFile size : 32.9 MiB\nDuration : 23mn 9s\nOverall bit rate mode : Variable\nOverall bit rate : 199 Kbps\nEncoded date : UTC 2012-09-05 11:03:52\nTagged date : UTC 2012-09-05 11:03:52\n\nVideo\n\nFormat : AVC\nFormat/Info : Advanced Video Codec\nFormat profile : &lt;a class=&quot;__cf_email__&quot; href=&quot;/cdn-cgi/l/email-protection&quot; data-cfemail=&quot;773f1e101f373b445947&quot;&gt;[email&amp;#160;protected]&lt;/a&gt;&lt;script data-cfhash='f9e31' type=&quot;text/javascript&quot;&gt;\n/* &lt;![CDATA[ */!function(){try{var t=&quot;currentScript&quot;in document?document.currentScript:function(){for(var t=document.getElementsByTagName(&quot;script&quot;),e=t.length;e--;)if(t[e].getAttribute(&quot;data-cfhash&quot;))return t[e]}();if(t&amp;&amp;t.previousSibling){var e,r,n,i,c=t.previousSibling,a=c.getAttribute(&quot;data-cfemail&quot;);if(a){for(e=&quot;&quot;,r=parseInt(a.substr(0,2),16),n=2;a.length-n;n+=2)i=parseInt(a.substr(n,2),16)^r,e+=String.fromCharCode(i);e=document.createTextNode(e),c.parentNode.replaceChild(e,c)}t.parentNode.removeChild(t);}}catch(u){}}()/* ]]&gt; */&lt;/script&gt;\nFormat settings, CABAC : Yes\nFormat settings, ReFrames : 6 frames\nCodec ID : avc1\nCodec ID/Info : Advanced Video Coding\nDuration : 23mn 9s\nBit rate mode : Variable\nBit rate : 102 Kbps\nMaximum bit rate : 1 102 Kbps\nWidth : 640 pixels\nHeight : 360 pixels\nDisplay aspect ratio : 16:9\nOriginal display aspect ratio : 16:9\nFrame rate mode : Constant\nFrame rate : 23.976 fps\nColor space : YUV\nChroma subsampling : 4:2:0\nBit depth : 8 bits\nScan type : Progressive\nBits/(Pixel*Frame) : 0.018\nStream size : 16.9 MiB (51%)\nWriting library : x264 core 125 r2208 d9d2288\nEncoded date : UTC 2012-09-05 11:03:52\nTagged date : UTC 2012-09-05 11:03:52\n\nAudio\n\nFormat : AAC\nFormat/Info : Advanced Audio Codec\nFormat profile : LC\nCodec ID : 40\nDuration : 23mn 9s\nBit rate mode : Variable\nBit rate : 93.3 Kbps\nMaximum bit rate : 139 Kbps\nChannel(s) : 2 channels\nChannel positions : Front: L R\nSampling rate : 44.1 KHz\nCompression mode : Lossy\nStream size : 15.4 MiB (47%)\nEncoded date : UTC 2012-09-05 11:03:52\nTagged date : UTC 2012-09-05 11:03:52\n","torrent":{"xt":"urn:btih:87afbd6ef0bd3eb11dd2a846ecb53e7934f8f827","amp;dn":"Naruto+Shippuden+Episode+278+-+With+English+Subtitle+MP4+%5BJazz_S","amp;tr":["udp%3A%2F%2Ftracker.openbittorrent.com%3A80","udp%3A%2F%2Fopen.demonii.com%3A1337","udp%3A%2F%2Ftracker.coppersurfer.tk%3A6969","udp%3A%2F%2Fexodus.desync.com%3A6969"],"infoHash":"87afbd6ef0bd3eb11dd2a846ecb53e7934f8f827","infoHashBuffer":{"type":"Buffer","data":[135,175,189,110,240,189,62,177,29,210,168,70,236,181,62,121,52,248,248,39]},"announce":[],"urlList":[]}}